<?xml version="1.0" encoding="UTF-8" standalone="no"?>
<svg
   xmlns:dc="http://purl.org/dc/elements/1.1/"
   xmlns:cc="http://creativecommons.org/ns#"
   xmlns:rdf="http://www.w3.org/1999/02/22-rdf-syntax-ns#"
   xmlns:svg="http://www.w3.org/2000/svg"
   xmlns="http://www.w3.org/2000/svg"
   xmlns:sodipodi="http://sodipodi.sourceforge.net/DTD/sodipodi-0.dtd"
   xmlns:inkscape="http://www.inkscape.org/namespaces/inkscape"
   version="1.1"
   x="0"
   y="0"
   width="1022"
   height="941"
   viewBox="0, 0, 1022, 941"
   id="svg971"
   sodipodi:docname="logo.svg"
   inkscape:version="0.92.3 (2405546, 2018-03-11)">
  <metadata
     id="metadata975">
    <rdf:RDF>
      <cc:Work
         rdf:about="">
        <dc:format>image/svg+xml</dc:format>
        <dc:type
           rdf:resource="http://purl.org/dc/dcmitype/StillImage" />
        <dc:title></dc:title>
      </cc:Work>
    </rdf:RDF>
  </metadata>
  <sodipodi:namedview
     pagecolor="#ffffff"
     bordercolor="#666666"
     borderopacity="1"
     objecttolerance="10"
     gridtolerance="10"
     guidetolerance="10"
     inkscape:pageopacity="0"
     inkscape:pageshadow="2"
     inkscape:window-width="3840"
     inkscape:window-height="2036"
     id="namedview973"
     showgrid="false"
     inkscape:zoom="0.47183847"
     inkscape:cx="436.30708"
     inkscape:cy="161.6467"
     inkscape:window-x="0"
     inkscape:window-y="68"
     inkscape:window-maximized="1"
     inkscape:current-layer="svg971" />
  <defs
     id="defs918">
    <clipPath
       id="Clip_1">
      <path
         d="M0.06,0.666 L1021.8,0.666 L1021.8,940.94 L0.06,940.94 z"
         id="path915" />
    </clipPath>
  </defs>
  <g
     id="g1128">
    <g
       transform="translate(77.279759)"
       id="g1094">
      <path
         style="fill:#fffff9;fill-opacity:1;fill-rule:evenodd;stroke:#000000;stroke-width:1px;stroke-linecap:butt;stroke-linejoin:miter;stroke-opacity:1"
         d="m 532.40467,648.56602 -33.11515,-2.38429 -0.79476,50.86486 29.14132,12.18637 -18.01464,45.83137 45.30152,28.08164 37.08897,1.05969 47.95073,-31.2607 -15.63035,-40.79786 23.57799,-16.69004 -1.85445,-51.3947 z"
         id="path977"
         inkscape:connector-curvature="0" />
      <path
         d="m 891.10405,622.37369 c -8.172,3.18 -15.872,7.43 -24.475,9.67 -22.379,5.826 -45.01,6.13 -67.82,3.981 -23.413,-2.206 -46.277,-7.2 -68.877,-13.539 -0.954,-0.268 -1.869,-0.678 -2.802,-1.022 0.666,-3.324 3.823,-3.936 6.106,-5.293 14.537,-8.644 27.814,-18.904 39.775,-30.83 23.139,-23.069 39.823,-50.263 51.293,-80.768 2.699,-7.178 5.212,-14.412 7.17,-21.824 0.732,-2.773 2.305,-4.106 5.146,-4.602 3.453,-0.601 6.962,-0.692 10.39,-1.403 17.305,-3.591 28.542,-14.038 33.309,-30.86 4.167,-14.702 3.976,-29.668 -0.45,-44.353 -4.328,-14.359 -15.201,-22.679 -30.113,-23.631 -1.162,-0.074 -2.344,0.012 -3.483,-0.256 -3.09,-0.729 -4.055,-2.435 -2.793,-5.519 3.479,-8.5 0.044,-12.988 -9.077,-12.464 -8.543,0.491 -16.92,-1.116 -25.202,-2.995 -24.136,-5.476 -47.218,-14.121 -69.891,-23.859 -38.159,-16.389 -75.437,-34.528 -109.757,-58.132 -25.344,-17.431 -48.027,-37.915 -68.672,-60.762 -23.866,-26.41 -43.098,-55.831 -58.814,-87.66 -0.368,-0.747 -0.76,-1.482 -1.178,-2.203 -1.778,-3.068 -4.434,-4.532 -7.937,-3.929 -3.595,0.619 -5.709,3.176 -5.805,6.575 -0.112,3.95 -2.16,5.474 -5.462,6.657 -29.613,10.61 -56.655,25.723 -80.504,46.351 -21.615,18.694 -39.573,40.419 -53.697,65.267 -22.486,39.56 -34.75,82.356 -40.001,127.331 -0.425,3.636 -2.093,5.159 -5.675,5.589 -19.818,2.379 -29.179,11.316 -33.028,30.965 -1.326,6.768 -1.274,13.568 -1.315,20.396 -0.014,2.238 0.661,4.729 -1.452,6.545 -2.039,-0.441 -2.309,-2.241 -2.779,-3.781 -6.182,-20.289 -10.551,-40.933 -12.497,-62.09 -1.174,-12.769 -2.198,-25.53 -1.885,-38.364 0.862,-35.329 6.21,-69.944 16.727,-103.705 2.575,-8.266 5.228,-16.52 8.461,-24.567 2.162,-5.382 2.859,-5.882 8.129,-3.953 13.688,5.011 27.719,8.588 42.269,9.534 17.972,1.168 34.754,-2.28 49.891,-14.732 -9.355,0.905 -17.785,1.596 -26.148,-0.042 -24.867,-4.87 -38.878,-20.873 -45.482,-44.458 -0.793,-2.834 0.135,-5.215 1.556,-7.568 8.81,-14.585 19.066,-28.096 30.1,-41.06 15.23,-17.891997 33.08,-32.766997 52.341,-46.056997 2.889,-1.996 5.972,-3.639 9.199,-5.014 3.643,-1.552 6.912,-2.384 10.564,0.797 3.321,2.893 7.026,1.93 11.716,-1.839 8.557,-6.877 17.41,-13.366 26.644,-19.28 27.549,-17.645 57.93,-27.5779998 90.119,-32.2259998 18.978,-2.741 38.134,-4.086 57.265,-2.971 35.771,2.083 71.428,5.50100001 105.78,16.6369998 29.05,9.417 55.92,23.282 80.854,40.898 16.501,11.658 31.971,24.622 45.979,39.121 21.712,22.471997 40.622,47.177997 56.119,74.400997 19.859,34.884 34.188,71.85 41.676,111.345 2.67,14.068 4.09,28.283 5.03,42.607 2.39,36.325 -2.23,71.75 -12.244,106.582 -3.964,13.79 -9.219,27.119 -15.495,40.032 -8.59,17.678 -18.207,34.865 -25.914,52.961 -6.294,14.777 -10.933,29.908 -10.633,46.371 0.292,16.059 5.598,29.949 15.478,42.291 3.219,4.021 6.407,8.108 10.447,11.404 1.013,0.827 2.106,1.714 1.824,3.303"
         id="path920"
         inkscape:connector-curvature="0"
         style="fill:#d7aa6f" />
      <path
         d="m 902.09205,608.49769 c -19.889,-16.973 -27.19,-37.813 -20.096,-63.453 5.506,-19.9 15.236,-37.887 24.721,-55.957 39.014,-74.318 47.294,-152.397 27.674,-233.427 -17.517,-72.334 -54.091,-134.078 -107.902,-185.414997 -38.796,-37.011 -83.608,-64.1609998 -135.646,-78.0729998 -42.718,-11.4200002 -86.408,-15.5290002 -130.581,-13.4800002 -40.778,1.892 -79.763,11.173 -115.153,32.011 -15.665,9.223 -31.723,16.402 -48.982,22.275 -50.53,17.195 -89.789,50.093 -120.285,93.277997 -47.499,67.263 -68.506,142.593 -65.755,224.671 1.638,48.849 14.366,94.749 37.183,137.964 9.297,17.608 18.848,35.147 24.394,54.47 6.304,21.969 3.31,41.796 -12.989,58.772 -1.649,1.717 -2.711,2.788 -5.372,1.513 -6.282,-3.011 -13.124,-3.865 -19.989,-3.136 -3.579,0.38 -4.836,-1.018 -6.147,-4.021 -43.526,-99.705 -87.149,-199.368 -130.759003,-299.038 -8.989,-20.544 -17.941,-41.106 -26.998,-61.62 -2.326,-5.271 -7.021,-7.165 -11.811,-5.128 -4.389,1.867 -6.192,6.638 -4.35,11.76 1.012,2.813 2.149,5.582 3.275,8.353 48.008003,118.181 95.983003,236.376 144.175003,354.482 1.904,4.667 0.963,6.483 -2.958,8.88 -19.172,11.72 -27.88,29.254 -27.667,51.464 0.237,24.653 9.636,46.356 22.444,66.685 6.746,10.707 17.142,16.971 29.699,19.373 1.936,0.371 3.708,0.96 5.425,2.222 21.327,15.685 43.336,30.362 66.13,43.828 23.067,13.627 46.557,26.364 72.4,34.178 17.137,5.182 33.239,4.534 48.706,-5.7 10.274,-6.798 20.729,-13.296 30.303,-21.074 5.874,-4.773 11.617,-9.708 17.832,-14.916 0.143,1.246 0.241,1.861 0.28,2.479 2.447,38.593 2.333,77.226 1.796,115.864 -0.096,6.92 2.6,9.931 9.297,9.932 66.325,0.009 132.649,0.01 198.973,-10e-4 6.378,-10e-4 9.116,-2.812 9.05,-9.133 -0.083,-7.995 0.004,-15.997 -0.328,-23.982 -0.14,-3.384 0.746,-4.845 4.222,-5.711 8.377,-2.087 16.699,-4.49 24.877,-7.257 14.678,-4.968 29.092,-10.623 41.07,-20.896 6.716,-5.759 11.454,-12.837 10.644,-22.073 -2.126,-24.227 -5.654,-48.268 -11.148,-71.973 -9.926,-42.822 -24.607,-83.798 -47.819,-121.397 -0.993,-1.609 -2.21,-2.696 0.714,-3.973 7.598,-3.319 15.005,-7.073 22.488,-10.654 0.533,-0.383 1.035,-0.818 1.602,-1.141 52.464,-29.961 85.15,-75.248 102.499,-132.382 2.617,-8.62 2.495,-8.432 11.425,-9.358 17.073,-1.771 29.762,-10.065 36.636,-26.118 6.537,-15.268 6.528,-31.165 2.96,-47.022 -4.279,-19.015 -15.493,-27.985 -34.825,-28.704 -3.935,-0.147 -5.011,-1.273 -2.432,-4.726 2.328,-3.116 2.419,-6.567 0.27,-9.78 -2.212,-3.307 -5.338,-4.63 -9.472,-4.023 -2.931,0.43 -5.998,0.363 -8.96,0.069 -13.966,-1.384 -27.467,-4.944 -40.761,-9.275 -43.193,-14.074 -84.183,-33.143 -123.714,-55.368 -57.568,-32.366 -104.225,-76.336 -139.453,-132.305 -7.635,-12.129 -14.425,-24.718 -20.596,-37.645 -2.124,-4.447 -5.746,-5.939 -10.297,-4.948 -4.078,0.887 -6.784,4.174 -6.322,7.906 0.53,4.278 -1.86,4.533 -4.481,5.48 -50.127,18.104 -91.295,48.17 -121.964,91.998 -31.079,44.415 -46.507,94.535 -53.045,147.794 -0.318,2.593 -0.165,4.673 -3.933,4.884 -18.992,1.063 -29.726,10.482 -34.173,29.032 -2.366,9.866 -1.727,19.828 -1.811,29.787 -1.277,1.295 -0.63,2.78 -0.335,4.175 1.849,8.767 4.981,16.989 10.446,24.198 8.65,9.552 19.289,15.11 32.228,15.941 4.133,0.265 6.615,1.918 7.726,6.234 1.489,5.785 3.566,11.431 5.598,17.061 11.159,30.919 27.714,58.53 50.753,82.099 16.822,17.208 36.203,30.876 57.592,41.718 0.987,-0.01 1.978,0.09 2.977,0.357 8.093,3.397 16.185,6.794 24.811,10.414 -7.78,9.868 -15.414,19.571 -23.068,29.257 -18.256,23.104 -36.574,46.159 -54.71,69.357 -2.133,2.729 -3.549,3.285 -6.798,1.62 -19.798,-10.146 -39.493,-20.475 -58.846,-31.45 -1.758,-0.997 -3.943,-1.225 -1.676,-4.441 16.981,-24.085 12.054,-55.399 -11.336,-73.754 -0.23,-0.18 -0.321,-0.538 -0.477,-0.813 0.278,-0.232 0.556,-0.409 0.834,-0.547 -0.107,-0.086 -0.207,-0.176 -0.315,-0.261 -3.302,-2.371 -7.047,-3.834 -10.81,-5.249 -4.338,-1.67 -8.82,-1.46 -13.318,-1.008 -2.09,0.21 -3.522,-0.682 -4.411,-2.541 -0.823,-1.721 -0.394,-3.229 0.774,-4.615 0.538,-0.637 1.149,-1.209 1.68,-1.847 13.907,-16.72 20.002,-35.68 17.273,-57.509 -2.702,-21.621 -11.75,-40.878 -21.692,-59.754 -13.383,-25.409 -25.546,-51.248 -32.734,-79.206 -8.742,-34 -11.742,-68.437 -9.056,-103.46 1.251,-16.309 3.425,-32.451 6.877,-48.399 8.528,-39.401 22.979,-76.488 44.471,-110.679 18.078,-28.76 40.408,-53.623997 67.961,-73.731997 12.164,-8.876 25.479,-15.71 38.488,-23.113 4.052,-2.255 8.178,-4.345 12.598,-5.806 1.632,-0.54 2.8,-0.641 4.335,0.877 4.291,4.243 8.627,4.443 13.226,0.419 7.008,-6.134 14.75,-11.294 22.335,-16.563 22.529,-15.649 47.533,-25.9469998 74.265,-31.9609998 28.264,-6.359 56.869,-8.081 85.778,-6.354 25.444,1.519 50.724,4.26000001 75.555,9.994 56.034,12.9409998 103.366,41.6079998 144.153,81.4999998 25.75,25.185997 47.151,53.785997 64.251,85.529997 32.668,60.648 48.386,124.913 41.696,194.066 -3.759,38.904 -14.554,75.611 -32.585,110.282 -9.054,17.409 -18.444,34.681 -24.91,53.32 -4.982,14.36 -7.512,29.056 -5.201,44.163 2.986,19.53 13.778,34.597 28.419,47.235 0.646,0.518 1.278,1.055 1.939,1.552 4.666,3.504 9.647,3.251 12.913,-0.646 3.243,-3.87 2.634,-8.876 -1.584,-12.837 -0.727,-0.683 -1.52,-1.296 -2.28,-1.945"
         id="path922"
         inkscape:connector-curvature="0"
         style="fill:#6e4100" />
      <path
         d="m 25.068047,173.36569 c -0.332,3.189 -1.959,6.175 -5.789,7.245 -4.043,1.129 -7.625,0.228 -10.0240003,-3.53 -3.936,-6.164 -7.821,-12.362 -11.716,-18.552 -5.755,-9.145 -11.5329997,-18.276 -17.2359997,-27.454 -3.335,-5.365 -2.574,-10.369 1.842,-13.087 4.499,-2.768 9.1689997,-1.371 12.5999997,4.038 9.438,14.879 18.7890003,29.812 28.1670003,44.729 1.156,1.839 2.218,3.724 2.156,6.611"
         id="path924"
         inkscape:connector-curvature="0"
         style="fill:#639fef;fill-opacity:1" />
      <path
         d="m -30.103953,229.42569 c -4.045,-0.853 -8.359,-2.574 -12.582,-4.493 -9.507,-4.321 -18.682,-9.349 -28.689,-12.589 -4.904,-1.587 -6.799,-6.16 -5.306,-10.855 1.386,-4.36 5.901,-6.508 10.879,-5.098 5.761,1.632 11.303,3.88 16.687,6.458 7.478,3.581 14.809,7.435 22.7,10.139 4.279,1.467 6.138,5 5.402,9.509 -0.67,4.105 -4.475,7.043 -9.091,6.929"
         id="path926"
         inkscape:connector-curvature="0"
         style="fill:#639fef;fill-opacity:1" />
      <path
         style="fill:#639fef;fill-opacity:1"
         inkscape:connector-curvature="0"
         id="path930"
         d="m 65.875047,96.735693 c -0.006,-4.315 2.634,-7.61 6.793,-8.294 4.509,-0.743 8.605,1.459 9.584,5.867 3.054,13.759997 5.158,27.696997 6.738,41.693997 0.507,4.495 -2.978,8.048 -7.3,8.578 -4.187,0.515 -8.464,-1.867 -9.163,-5.93 -2.389,-13.881 -4.442,-27.819 -6.652,-41.914997" />
      <path
         style="fill:#fefefe"
         inkscape:connector-curvature="0"
         id="path932"
         d="m 266.28205,435.61869 c 2.021,9.914 5.261,19.352 10.888,27.857 13.174,25.694 28.443,50.42 36.398,78.529 7.8,27.566 1.08,51.202 -19.512,70.92 -2.789,2.671 -5.826,4.682 -1.865,8.629 0.54,0.538 -0.121,1.152 -0.924,1.178 -4.73,-1.215 -9.568,-1.967 -14.301,-0.552 -4.201,1.256 -3.872,-2.633 -5.523,-4.239 -1.792,-1.744 -0.669,-3.052 0.701,-4.523 10.966,-11.775 18.061,-25.508 19.76,-41.603 1.754,-16.603 -2.193,-32.351 -8.222,-47.689 -7.611,-19.364 -18.066,-37.349 -27.094,-56.026 -19.111,-39.538 -28.533,-81.374 -29.344,-125.182 -1.05,-56.699 10.986,-110.602 35.933,-161.459 24.205,-49.342 58.157,-90.114997 106.581,-117.605997 5.575,-3.165 11.106,-6.554 17.431,-8.181 -7.308,5.701 -14.734,11.258 -21.905,17.127 -24.474,20.032 -44.035,44.286997 -60.662,71.038997 -1.014,1.631 -1.365,3.097 -0.86,5.119 7.86,31.441 34.68,49.24 66.556,44.076 2.042,-0.33 4.117,-0.459 7.516,-0.826 -6.995,7.8 -14.656,11.865 -23.073,14.565 -19.974,6.408 -39.761,3.764 -59.403,-1.721 -5.113,-1.428 -10.146,-3.198 -15.109,-5.091 -2.422,-0.925 -3.379,-0.544 -4.342,1.963 -11.191,29.146 -18.898,59.156 -22.803,90.141 -2.355,18.683 -3.523,37.432 -2.72,56.25 1.239,29.02 5.79,57.498 14.767,85.19 0.242,0.748 0.748,1.412 1.131,2.115" />
      <path
         style="fill:#6e4100"
         inkscape:connector-curvature="0"
         id="path934"
         d="m 820.05205,311.71369 c -1.688,0.191 -3.384,-0.448 -5.068,-1.228 -50.722,-23.503 -97.241,-53.233 -136.487,-93.412 -24.36,-24.939 -45.056,-52.553 -58.218,-85.221 -0.805,-1.997 -1.621,-4.047 -1.996,-6.151 -0.86,-4.824 1.667,-8.905 5.988,-10.133 4.687,-1.333 9.043,0.73 10.824,5.502 13.785,36.934 37.805,66.741 65.911,93.462 32.609,31.002 70.068,55.062 110.429,74.718 4.189,2.04 8.505,3.842 12.579,6.086 3.842,2.115 5.91,5.492 4.655,10.007 -1.145,4.118 -3.895,6.502 -8.617,6.37" />
      <path
         style="fill:#fef8ea"
         inkscape:connector-curvature="0"
         id="path936"
         d="m 324.41405,429.63669 c -7.058,-76.096 11.448,-145.33 57.574,-206.308 27.748,-36.683 65.086,-60.857 108.448,-75.879 2.871,-0.995 3.936,-0.447 5.326,2.105 41.109,75.468 101.236,131.106 177.389,170.062 37.029,18.943 74.754,36.186 114.649,48.305 11.478,3.487 23.115,6.318 35.072,7.452 2.962,0.28 3.302,1.512 3.473,3.955 1.393,19.841 0.225,39.566 -2.397,59.238 -3.658,-0.329 -3.907,-3.707 -5.185,-6.018 -7.156,-12.94 -16.584,-23.472 -31.039,-28.169 -18.886,-6.136 -35.865,-1.934 -50.753,10.826 -14.485,12.415 -22.612,28.404 -23.983,47.325 -0.942,13.016 4.063,24.398 12.687,34.207 8.411,9.567 19.353,14.489 31.407,17.339 8.976,2.122 17.994,3.186 27.192,0.891 6.08,-1.516 11.689,-3.792 16.664,-7.64 1.48,-1.144 2.813,-3.115 5.198,-1.782 -9.433,24.543 -23.526,46.139 -41.678,65.06 -31.776,33.12 -71.435,51.62 -115.74,60.566 -54.939,11.094 -109.852,10.445 -164.237,-3.771 -42.393,-11.082 -79.092,-31.915 -107.698,-65.734 -12.743,-15.066 -23.268,-31.552 -30.85,-49.836 0.918,-3.441 3.269,-1.288 4.656,-0.871 5.9,1.771 11.769,3.499 17.882,4.509 18.578,3.07 33.755,-3.067 46.073,-16.808 4.657,-5.195 8.956,-10.732 12.018,-17.106 5.226,-10.88 5.767,-22.107 2.345,-33.54 -5.289,-17.674 -14.439,-32.637 -31.447,-41.24 -18.536,-9.376 -41.972,-5.472 -57.005,8.944 -4.568,4.381 -8.994,8.884 -12.548,14.179 -1.118,1.666 -2.584,3.159 -3.493,-0.261" />
      <path
         style="fill:#ffd5ba"
         inkscape:connector-curvature="0"
         id="path940"
         d="m 806.13605,505.54569 c -2.806,0.207 -4.006,2.804 -6.062,4.143 -11.49,7.487 -23.957,9.204 -37.238,6.889 -15.826,-2.758 -30.174,-8.365 -40.36,-21.53 -10.811,-13.973 -13.663,-29.544 -8.313,-46.447 7.655,-24.183 22.497,-41.644 47.963,-47.236 15.849,-3.48 30.689,0.501 43.079,11.705 6.883,6.224 12.401,13.422 16.169,21.937 0.592,1.339 1.048,2.859 2.574,3.559 -3.202,23.055 -8.388,45.581 -17.812,66.98" />
      <path
         style="fill:#ffd5ba"
         inkscape:connector-curvature="0"
         id="path942"
         d="m 324.41405,429.63669 c 1.831,2.325 2.062,0.084 2.789,-0.946 8.971,-12.72 20.212,-22.455 35.509,-26.768 19.505,-5.5 41.703,2.244 54.107,19.074 9.033,12.255 15.232,25.606 15.456,41.266 0.165,11.574 -4.323,21.279 -11.042,30.263 -9.436,12.613 -20.637,22.468 -37.084,24.583 -10.655,1.369 -20.764,-0.797 -30.831,-3.895 -2.363,-0.728 -4.597,-2.729 -7.384,-1.383 -9.316,-19.578 -14.823,-40.322 -18.654,-61.55 -1.233,-6.831 -1.926,-13.76 -2.866,-20.644" />
      <path
         style="fill:#d7aa6f"
         inkscape:connector-curvature="0"
         id="path944"
         d="m 433.26705,627.40169 c -20.691,5.209 -41.654,8.43 -62.994,9.551 -19.093,1.003 -37.831,-0.571 -56.32,-5.431 -4.323,-1.137 -8.213,-3.641 -12.786,-3.93 -3.301,-1.62 -6.602,-3.24 -9.902,-4.86 0.146,-0.279 0.488,-0.662 0.404,-0.822 -1.01,-1.93 -4.891,-2.062 -3.924,-4.852 0.619,-1.786 3.02,-2.949 4.609,-4.406 24.194,-22.185 28.031,-48.869 17.434,-78.764 -6.41,-18.083 -15.623,-34.844 -24.27,-51.88 -3.063,-6.035 -6.756,-11.819 -8.347,-18.531 7.437,7.144 15.71,12.783 26.149,14.528 0.326,0.054 0.657,0.311 0.954,0.267 10.445,-1.541 12.677,5.161 15.227,13.441 11.358,36.885 30.079,69.54 57.998,96.56 15.304,14.811 32.548,26.92 51.468,36.671 1.466,0.755 2.868,1.636 4.3,2.458" />
      <path
         style="fill:#fef8ea"
         inkscape:connector-curvature="0"
         id="path946"
         d="m 237.64405,735.55069 c -16.179,-0.297 -26.438,-4.865 -32.537,-15.879 -8.95,-16.164 -16.78,-32.836 -17.485,-51.853 -0.589,-15.87 4.327,-29.033 18.163,-38.043 8.124,-5.289 16.397,-10.216 26.165,-11.709 8.963,-1.371 16.861,1.101 23.189,7.643 6.109,6.316 5.41,13.187 -1.776,18.108 -3.136,2.147 -6.561,3.903 -9.96,5.631 -4.328,2.201 -6.091,5.699 -5.009,10.268 1.05,4.432 4.38,6.47 8.836,6.659 3.821,0.162 7.696,-0.108 11.456,0.439 7.2,1.047 9.73,5.721 7.201,12.641 -1.051,2.877 -2.952,5.129 -5.233,7.166 -6.146,5.488 -5.208,12.341 2.103,16.007 8.737,4.381 9.718,9.818 3.131,17.359 -9.199,10.53 -19.702,15.617 -28.244,15.563" />
      <path
         inkscape:connector-curvature="0"
         style="fill:#3e2d03;fill-opacity:1"
         id="path948"
         d="m 599.34805,655.34369 c -4.144,13.129 -8.138,25.572 -11.947,38.071 -0.59,1.935 -1.625,2.154 -3.236,2.147 -7.146,-0.031 -14.295,-0.106 -21.439,0.039 -2.362,0.048 -3.061,-1.064 -3.685,-3.046 -3.822,-12.159 -7.769,-24.278 -11.923,-37.185 17.521,0.725 34.623,1.142 52.23,-0.026" />
      <path
         style="fill:#fef8ea"
         inkscape:connector-curvature="0"
         id="path950"
         d="m 867.02205,423.47869 c -0.072,6.565 -0.614,12.35 -2.26,17.962 -3.393,11.567 -11.712,18.463 -23.589,19.877 -2.34,0.279 -3.312,0.05 -2.754,-2.751 4.006,-20.095 5.911,-40.408 5.853,-60.896 -0.007,-2.279 0.589,-3.173 3.032,-3.308 7.478,-0.413 12.778,2.556 16.016,9.415 3.056,6.476 3.39,13.448 3.702,19.701" />
      <path
         style="fill:#fef8ea"
         inkscape:connector-curvature="0"
         id="path952"
         d="m 301.52805,394.42069 c 2.638,-0.598 3.576,0.6 3.583,3.748 0.045,20.19 1.851,40.229 5.842,60.039 0.591,2.936 -0.219,3.27 -3.039,2.788 -11.102,-1.899 -18.499,-8.024 -21.699,-18.772 -3.55,-11.921 -3.599,-23.997 0.078,-35.903 2.442,-7.906 7.573,-11.748 15.235,-11.9" />
      <path
         style="fill:#fef8ea"
         inkscape:connector-curvature="0"
         id="path954"
         d="m 305.40005,671.49869 c -0.038,7.706 -1.934,14.771 -7.007,20.808 -2.202,2.621 -4.852,4.549 -8.085,5.58 -1.951,0.622 -4.683,2.23 -5.796,-0.184 -1.399,-3.031 -5.899,-4.619 -3.34,-9.787 6.578,-13.285 3.387,-24.844 -8.561,-34.73 -0.575,-0.476 -1.982,-0.929 -1.285,-1.733 3.026,-3.493 2.713,-9.238 7.375,-11.46 4.383,-2.089 8.41,-0.506 12.122,2.161 8.497,6.105 14.581,18.34 14.577,29.345" />
      <path
         style="fill:#6e4100"
         inkscape:connector-curvature="0"
         id="path956"
         d="m 478.07705,385.16969 c -0.431,7.48 -1.699,15.443 -8.157,21.526 -8.05,7.584 -18.538,7.161 -26.068,-1.057 -9.872,-10.772 -11.294,-27.106 -2.766,-41.263 2.785,-4.625 4.052,-8.558 2.003,-13.612 -0.986,-2.431 -1.248,-5.162 -1.768,-7.771 -0.804,-4.035 0.493,-7.168 4.706,-7.92 3.844,-0.687 6.298,1.429 7.094,5.304 0.201,0.976 0.457,1.943 0.618,2.925 0.753,4.581 1.193,8.258 7.809,9.003 6.32,0.711 9.839,6.926 12.427,12.665 2.768,6.136 3.976,12.662 4.102,20.2" />
      <path
         style="fill:#6e4100"
         inkscape:connector-curvature="0"
         id="path958"
         d="m 712.70405,384.32169 c -0.038,6.233 -0.965,12.245 -4.23,17.71 -7.476,12.512 -22.071,13.515 -31.079,2.126 -8.976,-11.349 -9.679,-26.684 -1.098,-40.571 2.593,-4.195 3.283,-7.733 1.711,-12.257 -1.08,-3.107 -1.538,-6.468 -1.953,-9.757 -0.438,-3.476 1.251,-5.886 4.732,-6.486 3.392,-0.584 5.768,1.01 6.829,4.32 0.352,1.099 0.445,2.279 0.694,3.414 0.991,4.516 0.846,9.143 8.007,9.446 4.98,0.21 8.272,5.138 10.797,9.591 3.949,6.963 5.585,14.512 5.59,22.464" />
      <path
         style="fill:#6e4100"
         inkscape:connector-curvature="0"
         id="path960"
         d="m 577.47005,550.26169 c -19.008,-0.364 -31.472,-5.87 -39.145,-19.857 -1.101,-2.006 -1.903,-4.258 -2.402,-6.495 -0.889,-3.989 0.808,-7.03 4.659,-8.16 3.764,-1.105 7.204,0.167 8.485,4.108 3.986,12.261 14.906,16.953 27.734,16.175 11.112,-0.674 18.057,-6.071 21.56,-16.759 1.618,-4.934 5.081,-7.032 9.37,-5.676 3.746,1.185 5.415,5.131 4.181,9.889 -4.245,16.376 -19.658,27.168 -34.442,26.775" />
      <path
         style="fill:#6e4100"
         inkscape:connector-curvature="0"
         id="path962"
         d="m 459.72705,216.05869 c 6.073,-0.043 11.479,1.791 15.928,5.941 2.658,2.479 3.077,5.533 0.759,8.469 -2.02,2.556 -4.753,2.833 -7.591,1.37 -11.518,-5.938 -22.749,-2.947 -29.78,7.976 -0.269,0.418 -0.471,0.88 -0.745,1.294 -2.099,3.174 -5.073,3.852 -8.215,2.122 -3.041,-1.674 -3.646,-4.64 -2.325,-7.777 1.636,-3.888 4.326,-7.034 7.51,-9.769 7.039,-6.047 15.092,-9.508 24.459,-9.626" />
      <path
         style="fill:#6f4300"
         inkscape:connector-curvature="0"
         id="path964"
         d="m 582.23005,399.21369 c 0.263,4.056 -0.876,6.13 -3.175,7.072 -2.353,0.964 -5.072,1.065 -6.855,-1.178 -2.151,-2.706 -4.217,-5.558 -5.795,-8.618 -1.416,-2.746 -0.791,-5.635 1.898,-7.474 2.839,-1.941 5.853,-1.669 7.968,1.058 2.492,3.214 5.194,6.405 5.959,9.14" />
      <path
         style="fill:#6e4100"
         inkscape:connector-curvature="0"
         id="path966"
         d="m 560.00905,831.74269 c -0.06,-6.615 4.915,-11.861 11.418,-12.04 6.415,-0.176 11.794,5.028 11.917,11.527 0.131,6.957 -4.901,12.262 -11.644,12.276 -6.547,0.014 -11.63,-5.1 -11.691,-11.763" />
      <path
         style="fill:#6e4100"
         inkscape:connector-curvature="0"
         id="path968"
         d="m 583.34105,900.32869 c -0.22,6.53 -5.555,11.451 -12.13,11.19 -6.58,-0.262 -11.329,-5.414 -11.201,-12.15 0.126,-6.647 5.197,-11.48 11.92,-11.361 6.919,0.122 11.649,5.229 11.411,12.321" />
      <path
         inkscape:connector-curvature="0"
         style="fill:#3e2d03;fill-opacity:1"
         id="path938-6"
         d="m 485.31879,915.58038 c 1.466,-7.22399 1.002,-14.07899 1.061,-20.88599 0.323,-37.633 -0.101,-75.252 -2.779,-112.815 -0.234,-3.286 -0.349,-6.51 0.47,-9.881 0.987,-4.066 -0.869,-7.55 -4.82,-9.429 -4.186,-1.992 -7.654,-0.712 -10.765,2.513 -13.562,14.061 -28.179,26.916 -44.305,37.976 -5.343,3.664 -11.072,6.763 -16.427,10.41 -9.003,6.131 -18.586,6.208 -28.683,3.612 -19.161,-4.926 -36.679,-13.667 -53.914,-23.035 -23.388,-12.713 -45.747,-27.082 -68.202,-42.72 1.732,-0.759 2.98,-1.267 4.195,-1.843 13.508,-6.411 24.29,-15.533 29.832,-29.907 1.157,-3.001 6.443,-3.874 10.275,-1.751 12.94,7.164 25.794,14.488 38.828,21.476 12.3,6.594 24.764,12.886 37.2,19.223 7.648,3.898 10.548,3.162 15.799,-3.489 27.957,-35.417 55.999,-70.768 83.786,-106.318 2.764,-3.536 5.104,-4.066 9.077,-2.867 8.941,2.699 8.904,2.51 7.789,11.661 -1.488,12.226 -2.871,24.465 -4.195,36.71 -0.828,7.663 0.934,10.19 8.254,12.436 5.874,1.801 11.713,3.731 17.635,5.354 2.903,0.795 3.625,1.739 2.288,4.752 -4.514,10.169 -8.681,20.492 -13.006,30.745 -3.472,8.231 -2.616,11.083 4.797,15.747 13.234,8.325 40.7045,13.66895 67.3007,28.43719 l 0.003,-14.0896 c -10.977,-6.913 -39.92082,-18.10259 -51.01782,-24.81659 -2.773,-1.678 -3.025,-3.034 -1.805,-5.827 4.855,-11.108 9.492,-22.311 14.156,-33.501 3.365,-8.072 1.256,-12.341 -7.246,-14.947 -6.666,-2.043 -13.312,-4.153 -19.994,-6.14 -2.326,-0.692 -3.472,-1.5 -3.069,-4.453 1.465,-10.715 2.618,-21.477 3.661,-32.243 0.318,-3.284 1.302,-4.416 4.636,-3.298 2.02,0.676 4.278,1.076 6.392,0.956 7.707,-0.439 10.802,3.315 13.037,10.604 l 11.68192,44.9792 46.70214,6.53164 19.01069,-40.28916 c 1.693,-5.387 6.81825,-11.84968 8.55725,-17.22168 0.483,-1.491 0.646,-3.157 2.973,-3.384 5.461,-0.532 10.913,-1.242 16.325,-2.145 2.744,-0.458 3.367,0.545 3.626,3.064 1.106,10.762 2.272,21.523 3.76,32.236 0.43,3.097 -0.712,4.042 -3.286,4.776 -6.869,1.956 -13.696,4.064 -20.526,6.157 -7.738,2.372 -9.8,6.913 -6.627,14.502 4.613,11.032 9.001,22.168 13.98,33.032 1.765,3.85 0.757,5.301 -2.459,7.241 -10.965,6.611 -41.63318,17.36059 -52.46818,24.18659 l -0.003,14.0896 c 13.672,-8.563 56.5363,-20.14319 70.1803,-28.74919 6.687,-4.217 7.628,-7.332 4.597,-14.568 -4.234,-10.108 -8.307,-20.289 -12.785,-30.288 -1.65,-3.684 -1.5,-5.43 2.816,-6.456 5.804,-1.38 11.47,-3.346 17.182,-5.102 6.139,-1.885 8.293,-4.6 7.659,-10.948 -1.39,-13.906 -2.967,-27.797 -4.756,-41.657 -0.506,-3.927 -0.115,-5.879 4.43,-6.723 6.502,-1.206 12.875,-3.285 19.161,-5.414 3.316,-1.123 4.9,-0.27 6.7,2.589 18.212,28.927 30.874,60.245 40.386,92.936 8.483,29.15 13.503,58.949 16.945,89.073 0.761,6.658 -1.38,11.135 -6.639,14.858 -13.386,9.476 -28.692,14.499 -44.115,19.211 -3.873,1.184 -8.758,4.441 -11.539,2.286 -1.984,-1.539 -0.686,-7.499 -0.608,-11.481 0.727,-37.286 2.202,-74.528 6.794,-111.581 0.837,-6.747 -1.836,-10.923 -7.211,-11.515 -5.152,-0.568 -8.774,2.629 -9.462,8.644 -2.515,21.999 -4.244,44.059 -5.343,66.178 -1.495,30.114 -1.814,60.242 -1.607,90.38 0.044,6.487 0.275,12.983 0.738,19.452 0.163,2.27099 -0.323,3.04799 -2.515,2.77299 -0.492,-0.062 -0.998,-0.01 -1.498,-0.01 h -177.953 -3.048"
         sodipodi:nodetypes="ccccccccccccccccccccccccccccccccccccccccccccccccccccccccccccccccccccccccccccscc" />
      <path
         style="fill:#e9e8e3;fill-opacity:1;fill-rule:evenodd;stroke:none;stroke-width:1px;stroke-linecap:butt;stroke-linejoin:miter;stroke-opacity:1"
         d="m 509.99928,650.92328 -3.74655,40.65007 c 13.22725,4.32441 23.46992,4.41614 33.43796,12.1763 -11.11412,40.57624 -18.69989,44.67153 -15.45452,48.14318 16.3416,8.90796 35.04663,17.14065 52.57632,25.70915 18.64017,-8.78671 39.23284,-16.07149 55.79267,-26.45846 2.8308,-7.9623 -9.36637,-30.37829 -15.36085,-46.36358 30.23358,-15.77541 26.02514,-10.56412 32.314,-13.11292 l -5.05785,-40.2286 -21.91732,2.71626 c -28.76914,2.77156 -59.6652,1.71467 -90.9007,0.0468 z"
         id="path1025"
         inkscape:connector-curvature="0"
         sodipodi:nodetypes="cccccccccccc" />
      <path
         style="opacity:1;vector-effect:none;fill:#3e2d03;fill-opacity:1;fill-rule:nonzero;stroke:#3e2d03;stroke-width:7.69133854;stroke-linecap:round;stroke-linejoin:miter;stroke-miterlimit:4;stroke-dasharray:none;stroke-dashoffset:0;stroke-opacity:1"
         id="path1027"
         sodipodi:type="arc"
         sodipodi:cx="579.62836"
         sodipodi:cy="663.54388"
         sodipodi:rx="17.068012"
         sodipodi:ry="17.068012"
         sodipodi:start="0"
         sodipodi:end="6.2831679"
         sodipodi:open="true"
         d="m 596.69637,663.54388 a 17.068012,17.068012 0 0 1 -17.06794,17.06802 17.068012,17.068012 0 0 1 -17.06809,-17.06787 17.068012,17.068012 0 0 1 17.06779,-17.06816 17.068012,17.068012 0 0 1 17.06824,17.06772" />
      <path
         style="fill:#3e2d03;fill-opacity:1;fill-rule:evenodd;stroke:#3e2d03;stroke-width:9.07086658;stroke-linecap:butt;stroke-linejoin:miter;stroke-miterlimit:4;stroke-dasharray:none;stroke-opacity:1"
         d="m 601.10705,658.18764 c 10.26282,-11.40732 23.40672,-11.98977 23.52362,-11.77477 3.41393,-1.93197 7.33967,26.64376 4.33152,27.95347 -0.96443,6.92256 -26.82685,-0.877 -26.98515,-4.93369 z"
         id="path1029-2"
         inkscape:connector-curvature="0"
         sodipodi:nodetypes="ccccc"
         inkscape:transform-center-x="-0.033726272"
         inkscape:transform-center-y="-10.848504" />
      <path
         style="fill:#3e2d03;fill-opacity:1;fill-rule:evenodd;stroke:#3e2d03;stroke-width:9.07086658;stroke-linecap:butt;stroke-linejoin:miter;stroke-miterlimit:4;stroke-dasharray:none;stroke-opacity:1"
         d="m 556.81014,657.52455 c -10.57758,-11.11606 -23.73263,-11.33097 -23.84349,-11.1128 -3.46658,-1.8358 -6.59222,26.83848 -3.54864,28.06361 1.1575,6.8929 26.79186,-1.62634 26.83673,-5.68587 z"
         id="path1029-2-6"
         inkscape:connector-curvature="0"
         sodipodi:nodetypes="ccccc" />
    </g>
    <text
       id="text1063"
       y="980.28882"
       x="496.44186"
       style="font-style:normal;font-variant:normal;font-weight:normal;font-stretch:normal;font-size:389.25537109px;line-height:1000%;font-family:Dyuthi;-inkscape-font-specification:Dyuthi;font-variant-ligatures:normal;font-variant-caps:normal;font-variant-numeric:normal;font-feature-settings:normal;text-align:center;letter-spacing:0px;word-spacing:0px;writing-mode:lr-tb;text-anchor:middle;fill:#6fb4d7;fill-opacity:1;stroke:none;stroke-width:4.56158638px;stroke-linecap:butt;stroke-linejoin:miter;stroke-opacity:1"
       xml:space="preserve"><tspan
         style="fill:#6fb4d7;fill-opacity:1;stroke-width:4.56158638px"
         y="980.28882"
         x="496.44186"
         id="tspan1061"
         sodipodi:role="line">Conductor</tspan></text>
  </g>
</svg>
